g Exported Mesh Combined Mesh 
v 0 1 2
v -2 0.9999999 -1.192093E-07
v 2.384186E-07 1 1.192093E-07
v -2 0.9999999 2
v -2 1 2
v -4.000001 0.9999999 -3.576279E-07
v -2 1 -1.192092E-07
v -4.000001 0.9999999 2
v -1.999999 1 -1.192092E-07
v -4 0.9999999 -2.000001
v -1.999999 1 -2
v -4.000001 0.9999999 -3.576279E-07
v 2.000001 1 3.576279E-07
v -1.192093E-07 0.9999999 -2
v 2.000001 1 -2
v -3.576279E-07 0.9999999 1.192092E-07
v 2 1 2.000001
v -5.960464E-07 0.9999999 1.192092E-07
v 2.000001 1 3.576279E-07
v -8.34465E-07 0.9999999 2
v 2 1 4.000001
v -7.152557E-07 0.9999999 2
v 2.000001 1 2.000001
v -9.536743E-07 0.9999999 4
v 2.384186E-07 1 4.000001
v -2.000001 0.9999999 2
v 4.768372E-07 1 2
v -2.000001 0.9999999 4
v -2 1 4
v -4.000001 0.9999999 2
v -2 1 2
v -4.000001 0.9999999 4
v -1.999999 1 -2
v -4 0.9999999 -4.000001
v -1.999999 1 -4
v -4.000001 0.9999999 -2.000001
v 9.536743E-07 1 -2
v -2 0.9999999 -4.000001
v 1.192093E-06 1 -4
v -2 0.9999999 -2
v 2.000001 1 -2
v -1.192093E-07 0.9999999 -4
v 2.000001 1 -4
v -3.576279E-07 0.9999999 -2
v 7.152557E-07 1 1.192094E-07
v -2 0.9999999 -2
v 9.536743E-07 1 -2
v -2.000001 0.9999999 -1.192094E-07

vn -1.192093E-07 1 -1.421085E-14
vn -1.192093E-07 1 -1.421085E-14
vn -1.192093E-07 1 -1.421085E-14
vn -1.192093E-07 1 -1.421085E-14
vn -1.192093E-07 1 -1.421085E-14
vn -1.192093E-07 1 -1.421085E-14
vn -1.192093E-07 1 -1.421085E-14
vn -1.192093E-07 1 -1.421085E-14
vn -1.192093E-07 1 -1.421085E-14
vn -1.192093E-07 1 -1.421085E-14
vn -1.192093E-07 1 -1.421085E-14
vn -1.192093E-07 1 -1.421085E-14
vn -1.192093E-07 1 -1.421085E-14
vn -1.192093E-07 1 -1.421085E-14
vn -1.192093E-07 1 -1.421085E-14
vn -1.192093E-07 1 -1.421085E-14
vn -1.192093E-07 1 -1.421085E-14
vn -1.192093E-07 1 -1.421085E-14
vn -1.192093E-07 1 -1.421085E-14
vn -1.192093E-07 1 -1.421085E-14
vn -1.192093E-07 1 -1.421085E-14
vn -1.192093E-07 1 -1.421085E-14
vn -1.192093E-07 1 -1.421085E-14
vn -1.192093E-07 1 -1.421085E-14
vn -1.192093E-07 1 -1.421085E-14
vn -1.192093E-07 1 -1.421085E-14
vn -1.192093E-07 1 -1.421085E-14
vn -1.192093E-07 1 -1.421085E-14
vn -1.192093E-07 1 -1.421085E-14
vn -1.192093E-07 1 -1.421085E-14
vn -1.192093E-07 1 -1.421085E-14
vn -1.192093E-07 1 -1.421085E-14
vn -1.192093E-07 1 -1.421085E-14
vn -1.192093E-07 1 -1.421085E-14
vn -1.192093E-07 1 -1.421085E-14
vn -1.192093E-07 1 -1.421085E-14
vn -1.192093E-07 1 -1.421085E-14
vn -1.192093E-07 1 -1.421085E-14
vn -1.192093E-07 1 -1.421085E-14
vn -1.192093E-07 1 -1.421085E-14
vn -1.192093E-07 1 -1.421085E-14
vn -1.192093E-07 1 -1.421085E-14
vn -1.192093E-07 1 -1.421085E-14
vn -1.192093E-07 1 -1.421085E-14
vn -1.192093E-07 1 -1.421085E-14
vn -1.192093E-07 1 -1.421085E-14
vn -1.192093E-07 1 -1.421085E-14
vn -1.192093E-07 1 -1.421085E-14

vt 0 0
vt 1 1
vt 1 0
vt 0 1
vt 0 0
vt 1 1
vt 1 0
vt 0 1
vt 0 0
vt 1 1
vt 1 0
vt 0 1
vt 0 0
vt 1 1
vt 1 0
vt 0 1
vt 0 0
vt 1 1
vt 1 0
vt 0 1
vt 0 0
vt 1 1
vt 1 0
vt 0 1
vt 0 0
vt 1 1
vt 1 0
vt 0 1
vt 0 0
vt 1 1
vt 1 0
vt 0 1
vt 0 0
vt 1 1
vt 1 0
vt 0 1
vt 0 0
vt 1 1
vt 1 0
vt 0 1
vt 0 0
vt 1 1
vt 1 0
vt 0 1
vt 0 0
vt 1 1
vt 1 0
vt 0 1

vt1 0 0
vt1 0 0
vt1 0 0
vt1 0 0
vt1 0 0
vt1 0 0
vt1 0 0
vt1 0 0
vt1 0 0
vt1 0 0
vt1 0 0
vt1 0 0
vt1 0 0
vt1 0 0
vt1 0 0
vt1 0 0
vt1 0 0
vt1 0 0
vt1 0 0
vt1 0 0
vt1 0 0
vt1 0 0
vt1 0 0
vt1 0 0
vt1 0 0
vt1 0 0
vt1 0 0
vt1 0 0
vt1 0 0
vt1 0 0
vt1 0 0
vt1 0 0
vt1 0 0
vt1 0 0
vt1 0 0
vt1 0 0
vt1 0 0
vt1 0 0
vt1 0 0
vt1 0 0
vt1 0 0
vt1 0 0
vt1 0 0
vt1 0 0
vt1 0 0
vt1 0 0
vt1 0 0
vt1 0 0

vt2 0 0
vt2 0 0
vt2 0 0
vt2 0 0
vt2 0 0
vt2 0 0
vt2 0 0
vt2 0 0
vt2 0 0
vt2 0 0
vt2 0 0
vt2 0 0
vt2 0 0
vt2 0 0
vt2 0 0
vt2 0 0
vt2 0 0
vt2 0 0
vt2 0 0
vt2 0 0
vt2 0 0
vt2 0 0
vt2 0 0
vt2 0 0
vt2 0 0
vt2 0 0
vt2 0 0
vt2 0 0
vt2 0 0
vt2 0 0
vt2 0 0
vt2 0 0
vt2 0 0
vt2 0 0
vt2 0 0
vt2 0 0
vt2 0 0
vt2 0 0
vt2 0 0
vt2 0 0
vt2 0 0
vt2 0 0
vt2 0 0
vt2 0 0
vt2 0 0
vt2 0 0
vt2 0 0
vt2 0 0

vc 1 1 1 1
vc 1 1 1 1
vc 1 1 1 1
vc 1 1 1 1
vc 1 1 1 1
vc 1 1 1 1
vc 1 1 1 1
vc 1 1 1 1
vc 1 1 1 1
vc 1 1 1 1
vc 1 1 1 1
vc 1 1 1 1
vc 1 1 1 1
vc 1 1 1 1
vc 1 1 1 1
vc 1 1 1 1
vc 1 1 1 1
vc 1 1 1 1
vc 1 1 1 1
vc 1 1 1 1
vc 1 1 1 1
vc 1 1 1 1
vc 1 1 1 1
vc 1 1 1 1
vc 1 1 1 1
vc 1 1 1 1
vc 1 1 1 1
vc 1 1 1 1
vc 1 1 1 1
vc 1 1 1 1
vc 1 1 1 1
vc 1 1 1 1
vc 1 1 1 1
vc 1 1 1 1
vc 1 1 1 1
vc 1 1 1 1
vc 1 1 1 1
vc 1 1 1 1
vc 1 1 1 1
vc 1 1 1 1
vc 1 1 1 1
vc 1 1 1 1
vc 1 1 1 1
vc 1 1 1 1
vc 1 1 1 1
vc 1 1 1 1
vc 1 1 1 1
vc 1 1 1 1
f 1/1/1 3/3/3 2/2/2
f 2/2/2 4/4/4 1/1/1
f 5/5/5 7/7/7 6/6/6
f 6/6/6 8/8/8 5/5/5
f 9/9/9 11/11/11 10/10/10
f 10/10/10 12/12/12 9/9/9
f 13/13/13 15/15/15 14/14/14
f 14/14/14 16/16/16 13/13/13
f 17/17/17 19/19/19 18/18/18
f 18/18/18 20/20/20 17/17/17
f 21/21/21 23/23/23 22/22/22
f 22/22/22 24/24/24 21/21/21
f 25/25/25 27/27/27 26/26/26
f 26/26/26 28/28/28 25/25/25
f 29/29/29 31/31/31 30/30/30
f 30/30/30 32/32/32 29/29/29
f 33/33/33 35/35/35 34/34/34
f 34/34/34 36/36/36 33/33/33
f 37/37/37 39/39/39 38/38/38
f 38/38/38 40/40/40 37/37/37
f 41/41/41 43/43/43 42/42/42
f 42/42/42 44/44/44 41/41/41
f 45/45/45 47/47/47 46/46/46
f 46/46/46 48/48/48 45/45/45

