g Exported Mesh Combined Mesh 
v 2.5 3.000006 3
v -2.5 2.999994 -2
v -2.5 3.000006 3
v 2.5 2.999994 -2
v 3 0 3
v -3 4 3
v -3 0 3
v 3 4 3
v -2.99954 0 -1.999989
v 0.6455404 4 -2.000011
v 0.6455404 0 -2.000011
v -2.99954 4 -1.999989
v -2.499991 0 3
v -2.500009 4 -3
v -2.500009 0 -3
v -2.499991 4 3
v 2.499987 0 0.1943817
v 2.500013 4 2.999618
v 2.500013 0 2.999618
v 2.499987 4 0.1943817
v 1.644756 0 -1.999997
v 2.657244 4 -2.000003
v 2.657244 0 -2.000003
v 1.644756 4 -1.999997
v 0.645 2.495798 -1.999997
v 1.645 4.000202 -2.000003
v 1.645 2.495798 -2.000003
v 0.645 4.000202 -1.999997
v 2.499992 0 -2.59557
v 2.500008 4 -0.8144298
v 2.500008 0 -0.8144298
v 2.499992 4 -2.59557
v 2.499995 6.437302E-05 -0.8144919
v 2.500005 1.235936 0.1944919
v 2.500005 6.437302E-05 0.1944919
v 2.499995 1.235936 -0.8144919
v 2.499995 2.58401 -0.8144903
v 2.500005 3.99999 0.1944903
v 2.500005 2.58401 0.1944903
v 2.499995 3.99999 -0.8144903
v 2.50044 0.9507213 -0.8139976
v 3.31556 2.781279 -0.8140025
v 3.31556 0.9507213 -0.8140025
v 2.50044 2.781279 -0.8139976
v 3.31556 1.13872 0.194
v 2.50044 2.96928 0.194
v 2.50044 1.13872 0.194
v 3.31556 2.96928 0.194
v 3.31556 1.235998 -1.022644
v 2.50044 1.236002 0.1946441
v 2.50044 1.235998 -1.022644
v 3.31556 1.236002 0.1946441
v 3.31556 2.584006 0.402645
v 2.50044 2.583995 -0.8146451
v 2.50044 2.584006 0.402645
v 3.31556 2.583995 -0.8146451

vn 0 -1 2.503395E-06
vn 0 -1 2.503395E-06
vn 0 -1 2.503395E-06
vn 0 -1 2.503395E-06
vn 0 0 -1
vn 0 0 -1
vn 0 0 -1
vn 0 0 -1
vn 5.900859E-06 0 1
vn 5.900859E-06 0 1
vn 5.900859E-06 0 1
vn 5.900859E-06 0 1
vn 1 0 -2.920627E-06
vn 1 0 -2.920627E-06
vn 1 0 -2.920627E-06
vn 1 0 -2.920627E-06
vn -1 0 8.940696E-06
vn -1 0 8.940696E-06
vn -1 0 8.940696E-06
vn -1 0 8.940696E-06
vn 5.900859E-06 0 1
vn 5.900859E-06 0 1
vn 5.900859E-06 0 1
vn 5.900859E-06 0 1
vn 5.900859E-06 0 1
vn 5.900859E-06 0 1
vn 5.900859E-06 0 1
vn 5.900859E-06 0 1
vn -1 0 8.940696E-06
vn -1 0 8.940696E-06
vn -1 0 8.940696E-06
vn -1 0 8.940696E-06
vn -1 0 8.940695E-06
vn -1 0 8.940695E-06
vn -1 0 8.940695E-06
vn -1 0 8.940695E-06
vn -1 0 8.940696E-06
vn -1 0 8.940696E-06
vn -1 0 8.940696E-06
vn -1 0 8.940696E-06
vn 5.930661E-06 0 1
vn 5.930661E-06 0 1
vn 5.930661E-06 0 1
vn 5.930661E-06 0 1
vn 0 0 -1
vn 0 0 -1
vn 0 0 -1
vn 0 0 -1
vn 0 1 -2.920628E-06
vn 0 1 -2.920628E-06
vn 0 1 -2.920628E-06
vn 0 1 -2.920628E-06
vn 0 -1 9.059905E-06
vn 0 -1 9.059905E-06
vn 0 -1 9.059905E-06
vn 0 -1 9.059905E-06

vt 0 0
vt 1 1
vt 1 0
vt 0 1
vt 0 0
vt 1 1
vt 1 0
vt 0 1
vt 0 0
vt 1 1
vt 1 0
vt 0 1
vt 0 0
vt 1 1
vt 1 0
vt 0 1
vt 0 0
vt 1 1
vt 1 0
vt 0 1
vt 0 0
vt 1 1
vt 1 0
vt 0 1
vt 0 0
vt 1 1
vt 1 0
vt 0 1
vt 0 0
vt 1 1
vt 1 0
vt 0 1
vt 0 0
vt 1 1
vt 1 0
vt 0 1
vt 0 0
vt 1 1
vt 1 0
vt 0 1
vt 0 0
vt 1 1
vt 1 0
vt 0 1
vt 0 0
vt 1 1
vt 1 0
vt 0 1
vt 0 0
vt 1 1
vt 1 0
vt 0 1
vt 0 0
vt 1 1
vt 1 0
vt 0 1

vt1 0 0
vt1 0 0
vt1 0 0
vt1 0 0
vt1 0 0
vt1 0 0
vt1 0 0
vt1 0 0
vt1 0 0
vt1 0 0
vt1 0 0
vt1 0 0
vt1 0 0
vt1 0 0
vt1 0 0
vt1 0 0
vt1 0 0
vt1 0 0
vt1 0 0
vt1 0 0
vt1 0 0
vt1 0 0
vt1 0 0
vt1 0 0
vt1 0 0
vt1 0 0
vt1 0 0
vt1 0 0
vt1 0 0
vt1 0 0
vt1 0 0
vt1 0 0
vt1 0 0
vt1 0 0
vt1 0 0
vt1 0 0
vt1 0 0
vt1 0 0
vt1 0 0
vt1 0 0
vt1 0 0
vt1 0 0
vt1 0 0
vt1 0 0
vt1 0 0
vt1 0 0
vt1 0 0
vt1 0 0
vt1 0 0
vt1 0 0
vt1 0 0
vt1 0 0
vt1 0 0
vt1 0 0
vt1 0 0
vt1 0 0

vt2 0 0
vt2 0 0
vt2 0 0
vt2 0 0
vt2 0 0
vt2 0 0
vt2 0 0
vt2 0 0
vt2 0 0
vt2 0 0
vt2 0 0
vt2 0 0
vt2 0 0
vt2 0 0
vt2 0 0
vt2 0 0
vt2 0 0
vt2 0 0
vt2 0 0
vt2 0 0
vt2 0 0
vt2 0 0
vt2 0 0
vt2 0 0
vt2 0 0
vt2 0 0
vt2 0 0
vt2 0 0
vt2 0 0
vt2 0 0
vt2 0 0
vt2 0 0
vt2 0 0
vt2 0 0
vt2 0 0
vt2 0 0
vt2 0 0
vt2 0 0
vt2 0 0
vt2 0 0
vt2 0 0
vt2 0 0
vt2 0 0
vt2 0 0
vt2 0 0
vt2 0 0
vt2 0 0
vt2 0 0
vt2 0 0
vt2 0 0
vt2 0 0
vt2 0 0
vt2 0 0
vt2 0 0
vt2 0 0
vt2 0 0

vc 1 1 1 1
vc 1 1 1 1
vc 1 1 1 1
vc 1 1 1 1
vc 1 1 1 1
vc 1 1 1 1
vc 1 1 1 1
vc 1 1 1 1
vc 1 1 1 1
vc 1 1 1 1
vc 1 1 1 1
vc 1 1 1 1
vc 1 1 1 1
vc 1 1 1 1
vc 1 1 1 1
vc 1 1 1 1
vc 1 1 1 1
vc 1 1 1 1
vc 1 1 1 1
vc 1 1 1 1
vc 1 1 1 1
vc 1 1 1 1
vc 1 1 1 1
vc 1 1 1 1
vc 1 1 1 1
vc 1 1 1 1
vc 1 1 1 1
vc 1 1 1 1
vc 1 1 1 1
vc 1 1 1 1
vc 1 1 1 1
vc 1 1 1 1
vc 1 1 1 1
vc 1 1 1 1
vc 1 1 1 1
vc 1 1 1 1
vc 1 1 1 1
vc 1 1 1 1
vc 1 1 1 1
vc 1 1 1 1
vc 1 1 1 1
vc 1 1 1 1
vc 1 1 1 1
vc 1 1 1 1
vc 1 1 1 1
vc 1 1 1 1
vc 1 1 1 1
vc 1 1 1 1
vc 1 1 1 1
vc 1 1 1 1
vc 1 1 1 1
vc 1 1 1 1
vc 1 1 1 1
vc 1 1 1 1
vc 1 1 1 1
vc 1 1 1 1
f 1/1/1 3/3/3 2/2/2
f 2/2/2 4/4/4 1/1/1
f 5/5/5 7/7/7 6/6/6
f 6/6/6 8/8/8 5/5/5
f 9/9/9 11/11/11 10/10/10
f 10/10/10 12/12/12 9/9/9
f 13/13/13 15/15/15 14/14/14
f 14/14/14 16/16/16 13/13/13
f 17/17/17 19/19/19 18/18/18
f 18/18/18 20/20/20 17/17/17
f 21/21/21 23/23/23 22/22/22
f 22/22/22 24/24/24 21/21/21
f 25/25/25 27/27/27 26/26/26
f 26/26/26 28/28/28 25/25/25
f 29/29/29 31/31/31 30/30/30
f 30/30/30 32/32/32 29/29/29
f 33/33/33 35/35/35 34/34/34
f 34/34/34 36/36/36 33/33/33
f 37/37/37 39/39/39 38/38/38
f 38/38/38 40/40/40 37/37/37
f 41/41/41 43/43/43 42/42/42
f 42/42/42 44/44/44 41/41/41
f 45/45/45 47/47/47 46/46/46
f 46/46/46 48/48/48 45/45/45
f 49/49/49 51/51/51 50/50/50
f 50/50/50 52/52/52 49/49/49
f 53/53/53 55/55/55 54/54/54
f 54/54/54 56/56/56 53/53/53

