g Exported Mesh Combined Mesh 
v -3.790438 3.794258 -5.075436
v -5.809566 3.794258 -5.075441
v -5.809566 3.83471 -4.674562
v -3.790439 3.83471 -4.674557
v -3.790437 3.603602 -5.482213
v -5.809565 3.603602 -5.482217
v -3.790436 3.316772 -5.834742
v -5.809564 3.316772 -5.834746
v -3.790436 3 -5.999999
v -5.809564 3 -6.000004
v -5.809573 3.834704 -2.040002
v -3.790444 3.834704 -2.039998
v -3.790439 3.83471 -4.674557
v -5.809566 3.83471 -4.674562
v -3.693025 3.88479 -4.675352
v -3.69303 3.884786 -2.039998
v -5.906987 3.884786 -2.040003
v -5.906981 3.88479 -4.675357
v -3.693024 3.844304 -5.075455
v -5.90698 3.844304 -5.07546
v -5.906979 3.641204 -5.504775
v -3.693023 3.641204 -5.50477
v -5.906978 3.343328 -5.868178
v -3.693022 3.343328 -5.868173
v -5.906978 3 -6.055444
v -3.693022 3 -6.055439
v -3.693025 3.88479 -4.675352
v -5.906981 3.88479 -4.675357
v -5.77415 3.698818 -2.040002
v -6.039824 3.698806 -2.040003
v -6.039824 3.937211 -2.040003
v -5.774149 3.93721 -2.040002
v -5.77415 3.698818 -2.040002
v -5.774143 3.698913 -4.677226
v -6.039818 3.698913 -4.677227
v -6.039824 3.698806 -2.040003
v -6.039824 3.698806 -2.040003
v -6.039818 3.698913 -4.677227
v -6.039818 3.937298 -4.677253
v -6.039824 3.937211 -2.040003
v -5.774149 3.93721 -2.040002
v -5.774143 3.937298 -4.677252
v -5.774143 3.698913 -4.677226
v -5.77415 3.698818 -2.040002
v -5.774143 3.698913 -4.677226
v -5.774142 3.657219 -5.135392
v -6.039816 3.657219 -5.135393
v -6.039818 3.698913 -4.677227
v -6.039816 3.469198 -5.491046
v -5.774142 3.469198 -5.491045
v -6.039815 3.218338 -5.790331
v -5.774141 3.218338 -5.790331
v -6.039815 3 -5.889681
v -5.774141 3 -5.889681
v -5.774143 3.698913 -4.677226
v -5.774143 3.937298 -4.677252
v -5.774142 3.863096 -5.215032
v -5.774142 3.657219 -5.135392
v -5.774141 3.66566 -5.591862
v -5.774142 3.469198 -5.491045
v -5.77414 3.365933 -5.954237
v -5.774141 3.218338 -5.790331
v -5.77414 3 -6.128165
v -5.774141 3 -5.889681
v -6.039818 3.698913 -4.677227
v -6.039816 3.657219 -5.135393
v -6.039816 3.863096 -5.215033
v -6.039818 3.937298 -4.677253
v -6.039816 3.66566 -5.591863
v -6.039816 3.469198 -5.491046
v -6.039815 3.365933 -5.954237
v -6.039815 3.218338 -5.790331
v -6.039815 3 -6.128165
v -6.039815 3 -5.889681
v -5.774143 3.937298 -4.677252
v -5.774149 3.93721 -2.040002
v -6.039824 3.937211 -2.040003
v -6.039818 3.937298 -4.677253
v -5.774142 3.863096 -5.215032
v -5.774143 3.937298 -4.677252
v -6.039818 3.937298 -4.677253
v -6.039816 3.863096 -5.215033
v -5.774141 3.66566 -5.591862
v -6.039816 3.66566 -5.591863
v -5.77414 3.365933 -5.954237
v -6.039815 3.365933 -5.954237
v -5.77414 3 -6.128165
v -5.77414 3.365933 -5.954237
v -6.039815 3.365933 -5.954237
v -6.039815 3 -6.128165
v -9.98994 2.9 -10
v -9.98994 2.9 -8.000002
v -7.994062 2.900005 -8.000002
v -7.994061 2.900005 -10
v -9.98994 2.942002 -8.000002
v -9.98994 2.942003 -10
v -7.994061 2.941998 -10
v -7.994062 2.941998 -8.000002
v -7.993938 2.9 -10
v -7.993939 2.9 -8.000001
v -5.99806 2.900005 -8.000001
v -5.99806 2.900005 -10
v -7.993939 2.942002 -8.000001
v -7.993938 2.942003 -10
v -5.99806 2.941998 -10
v -5.99806 2.941998 -8.000001
v -5.997939 2.9 -10
v -5.997939 2.9 -8.000001
v -4.00206 2.900005 -8.000001
v -4.00206 2.900005 -10
v -5.997939 2.942002 -8.000001
v -5.997939 2.942003 -10
v -4.00206 2.941998 -10
v -4.00206 2.941998 -8.000001
v -5.997939 2.9 -8.000002
v -5.997939 2.9 -6.000001
v -4.00206 2.900005 -6.000001
v -4.00206 2.900005 -8.000002
v -5.997939 2.942002 -6.000001
v -5.997939 2.942003 -8.000002
v -4.00206 2.941998 -8.000002
v -4.00206 2.941998 -6.000001

vn -5.836337E-07 -0.9643467 0.2646419
vn -5.836337E-07 -0.9643467 0.2646419
vn -1.107833E-07 -0.9987375 0.05023341
vn -1.107833E-07 -0.9987375 0.05023341
vn -1.17002E-06 -0.847665 0.5305318
vn -1.17002E-06 -0.847665 0.5305318
vn -1.703265E-06 -0.635227 0.7723255
vn -1.703265E-06 -0.635227 0.7723255
vn -1.955286E-06 -0.4625336 0.8866017
vn -1.955286E-06 -0.4625336 0.8866017
vn 4.855581E-12 -1 -2.198485E-06
vn 4.855581E-12 -1 -2.198485E-06
vn -1.107833E-07 -0.9987375 0.05023341
vn -1.107833E-07 -0.9987375 0.05023341
vn 1.110873E-07 0.9987306 -0.05037124
vn -3.331506E-12 1 1.507411E-06
vn -3.331506E-12 1 1.507411E-06
vn 1.110873E-07 0.9987306 -0.05037124
vn 5.876509E-07 0.963845 -0.2664635
vn 5.876509E-07 0.963845 -0.2664635
vn 1.176748E-06 0.8457479 -0.5335827
vn 1.176748E-06 0.8457479 -0.5335827
vn 1.693377E-06 0.6406392 -0.7678421
vn 1.693377E-06 0.6406392 -0.7678421
vn 1.936095E-06 0.478845 -0.8778995
vn 1.936095E-06 0.478845 -0.8778995
vn 1.110873E-07 0.9987306 -0.05037124
vn 1.110873E-07 0.9987306 -0.05037124
vn -2.205372E-06 -4.371139E-08 1
vn -2.205372E-06 -4.371139E-08 1
vn -2.205372E-06 -4.371139E-08 1
vn -2.205372E-06 -4.371139E-08 1
vn 2.246366E-05 -1 -3.843163E-05
vn 1.116278E-05 -0.9989725 0.0453207
vn 1.116279E-05 -0.9989725 0.04532067
vn 2.246366E-05 -1 -3.843162E-05
vn -1 -1.183967E-14 -2.205372E-06
vn -1 -9.827724E-08 -2.753417E-06
vn -1 -9.050714E-08 -2.710088E-06
vn -1 -1.183967E-14 -2.205372E-06
vn 1 -1.133684E-06 2.30781E-06
vn 1 -5.955316E-07 2.259183E-06
vn 1 -5.493301E-07 2.255008E-06
vn 1 -1.133684E-06 2.30781E-06
vn 1.116278E-05 -0.9989725 0.0453207
vn -5.50047E-07 -0.9593182 0.2823271
vn -5.500468E-07 -0.9593182 0.282327
vn 1.116279E-05 -0.9989725 0.04532067
vn -1.085351E-06 -0.8304541 0.5570871
vn -1.085351E-06 -0.8304541 0.5570871
vn -1.55111E-06 -0.6089824 0.7931837
vn -1.55111E-06 -0.6089824 0.7931837
vn -1.790258E-06 -0.4141665 0.9102011
vn -1.790258E-06 -0.4141665 0.9102011
vn 1 -5.493301E-07 2.255008E-06
vn 1 -5.955316E-07 2.259183E-06
vn 1 1.183967E-14 2.205372E-06
vn 1 1.183967E-14 2.205372E-06
vn 1 1.183967E-14 2.205372E-06
vn 1 1.183967E-14 2.205372E-06
vn 1 1.183967E-14 2.205372E-06
vn 1 1.183967E-14 2.205372E-06
vn 1 1.183967E-14 2.205372E-06
vn 1 1.183967E-14 2.205372E-06
vn -1 -9.827724E-08 -2.753417E-06
vn -1 1.68119E-07 -2.153411E-06
vn -1 1.71813E-07 -2.141929E-06
vn -1 -9.050714E-08 -2.710088E-06
vn -1 3.042686E-07 -1.526987E-06
vn -1 2.351527E-07 -1.681085E-06
vn -1 -1.183967E-14 -2.205372E-06
vn -1 -1.183967E-14 -2.205372E-06
vn -1 -1.183967E-14 -2.205372E-06
vn -1 -1.183967E-14 -2.205372E-06
vn 1.034943E-06 0.997657 -0.06841461
vn 2.054516E-06 1 3.336723E-05
vn 2.054516E-06 1 3.336723E-05
vn 1.034944E-06 0.997657 -0.06841458
vn 3.611108E-07 0.952948 -0.3031336
vn 1.034943E-06 0.997657 -0.06841461
vn 1.034944E-06 0.997657 -0.06841458
vn 3.611107E-07 0.952948 -0.3031336
vn 1.15838E-06 0.8332782 -0.5528538
vn 1.158381E-06 0.8332782 -0.5528539
vn 1.86531E-06 0.618011 -0.7861695
vn 1.86531E-06 0.6180109 -0.7861695
vn 2.048951E-06 0.4292774 -0.9031727
vn 1.86531E-06 0.618011 -0.7861695
vn 1.86531E-06 0.6180109 -0.7861695
vn 2.048951E-06 0.4292774 -0.9031727
vn 2.367838E-06 -1 2.822682E-13
vn 2.367838E-06 -1 2.822682E-13
vn 2.367838E-06 -1 2.822682E-13
vn 2.367838E-06 -1 2.822682E-13
vn 2.368086E-06 1 1.506809E-07
vn 2.368086E-06 1 1.506809E-07
vn 2.368086E-06 1 1.506809E-07
vn 2.368086E-06 1 1.506809E-07
vn 2.367836E-06 -1 2.822681E-13
vn 2.367836E-06 -1 2.822681E-13
vn 2.367836E-06 -1 2.822681E-13
vn 2.367836E-06 -1 2.822681E-13
vn 2.368085E-06 1 1.506808E-07
vn 2.368085E-06 1 1.506808E-07
vn 2.368085E-06 1 1.506808E-07
vn 2.368085E-06 1 1.506808E-07
vn 2.367836E-06 -1 2.822681E-13
vn 2.367836E-06 -1 2.822681E-13
vn 2.367836E-06 -1 2.822681E-13
vn 2.367836E-06 -1 2.822681E-13
vn 2.368085E-06 1 1.506808E-07
vn 2.368085E-06 1 1.506808E-07
vn 2.368085E-06 1 1.506808E-07
vn 2.368085E-06 1 1.506808E-07
vn 2.367836E-06 -1 2.822681E-13
vn 2.367836E-06 -1 2.822681E-13
vn 2.367836E-06 -1 2.822681E-13
vn 2.367836E-06 -1 2.822681E-13
vn 2.368085E-06 1 1.506808E-07
vn 2.368085E-06 1 1.506808E-07
vn 2.368085E-06 1 1.506808E-07
vn 2.368085E-06 1 1.506808E-07

vt 0.7134327 0.6093408
vt 0.1097187 0.6093408
vt 0.1097187 0.7987685
vt 0.7134327 0.7987685
vt 0.7134327 0.3977982
vt 0.1097187 0.3977982
vt 0.7134327 0.1787909
vt 0.1097187 0.1787909
vt 0.7134327 0.01974547
vt 0.1097187 0.01974547
vt 0.109719 0.7987685
vt 0.7134329 0.7987685
vt 0.7134329 0.01974547
vt 0.109719 0.01974547
vt 0.7133538 0.01974499
vt 0.7133536 0.7987535
vt 0.109749 0.7987535
vt 0.109749 0.01974499
vt 0.7133538 0.6093408
vt 0.1097487 0.6093408
vt 0.1097487 0.3977982
vt 0.7133538 0.3977982
vt 0.1097487 0.1787909
vt 0.7133538 0.1787909
vt 0.1097487 0.01974547
vt 0.7133538 0.01974547
vt 0.7133536 0.7987537
vt 0.1097487 0.7987537
vt 0.8311328 0.7375574
vt 0.8311328 0.9622183
vt 0.9744385 0.9622183
vt 0.9744385 0.7375574
vt 0.01199381 0.9252561
vt 0.796527 0.9252561
vt 0.7965272 0.8205984
vt 0.011994 0.8205981
vt 0.011994 0.9254227
vt 0.7965272 0.9254227
vt 0.7966738 0.985855
vt 0.01214084 0.9858554
vt 0.01214094 0.9855999
vt 0.7966738 0.9855999
vt 0.796527 0.9252561
vt 0.01199381 0.9252561
vt 0.8162783 0.7008028
vt 0.8162783 0.5271143
vt 0.9199004 0.5271148
vt 0.9199004 0.7008032
vt 0.9199005 0.3457873
vt 0.8162788 0.3457869
vt 0.9199005 0.1617723
vt 0.8162791 0.1617719
vt 0.9199005 0.01796517
vt 0.8162798 0.01796517
vt 0.9199004 0.7008028
vt 0.9853491 0.7008045
vt 0.9853491 0.5271134
vt 0.9199004 0.5271143
vt 0.9853491 0.3457867
vt 0.9199005 0.3457869
vt 0.9853491 0.1617716
vt 0.9199005 0.1617719
vt 0.9853491 0.01796517
vt 0.9199005 0.01796517
vt 0.9199004 0.7008032
vt 0.9199004 0.5271148
vt 0.9853491 0.5271145
vt 0.9853491 0.7008053
vt 0.9853491 0.3457878
vt 0.9199005 0.3457873
vt 0.9853491 0.1617727
vt 0.9199005 0.1617723
vt 0.9853491 0.01796517
vt 0.9199005 0.01796517
vt 0.7960837 0.8204523
vt 0.01218291 0.8235157
vt 0.01251392 0.9282595
vt 0.7964142 0.9251975
vt 0.8164071 0.5065145
vt 0.8164063 0.7008013
vt 0.919848 0.7008013
vt 0.9198484 0.5065145
vt 0.8164093 0.3509237
vt 0.9198511 0.3509237
vt 0.8164116 0.1754355
vt 0.9198533 0.1754392
vt 0.8164207 0.01797883
vt 0.8164116 0.1754355
vt 0.9198533 0.1754392
vt 0.9198625 0.01798558
vt 0.01545984 0.7987535
vt 0.7931548 0.7987535
vt 0.793155 0.01974499
vt 0.01545984 0.01974499
vt 0.01545984 0.7987535
vt 0.7931548 0.7987535
vt 0.793155 0.01974499
vt 0.01545984 0.01974499
vt 0.01545984 0.7987535
vt 0.7931548 0.7987535
vt 0.793155 0.01974499
vt 0.01545984 0.01974499
vt 0.01545984 0.7987535
vt 0.7931548 0.7987535
vt 0.793155 0.01974499
vt 0.01545984 0.01974499
vt 0.01545984 0.7987535
vt 0.7931548 0.7987535
vt 0.793155 0.01974499
vt 0.01545984 0.01974499
vt 0.01545984 0.7987535
vt 0.7931548 0.7987535
vt 0.793155 0.01974499
vt 0.01545984 0.01974499
vt 0.01545984 0.7987535
vt 0.7931548 0.7987535
vt 0.793155 0.01974499
vt 0.01545984 0.01974499
vt 0.01545984 0.7987535
vt 0.7931548 0.7987535
vt 0.793155 0.01974499
vt 0.01545984 0.01974499

vt1 0.406273 0.3574744
vt1 0.406273 0.6763658
vt1 0.3528474 0.6763659
vt1 0.3528474 0.3574744
vt1 0.4669695 0.3574744
vt1 0.4669695 0.6763658
vt1 0.5298077 0.3574744
vt1 0.5298077 0.6763658
vt1 0.5811509 0.3574744
vt1 0.5811509 0.6763658
vt1 0.00390625 0.6763658
vt1 0.003906263 0.3574744
vt1 0.3528474 0.3574744
vt1 0.3528474 0.6763659
vt1 0.2425266 0.00390625
vt1 0.5915724 0.003906316
vt1 0.5915724 0.3535682
vt1 0.2425265 0.3535681
vt1 0.1892025 0.00390625
vt1 0.1892024 0.3535681
vt1 0.1250155 0.3535681
vt1 0.1250155 0.00390625
vt1 0.06002272 0.3535681
vt1 0.06002278 0.00390625
vt1 0.00390625 0.3535681
vt1 0.003906309 0.00390625
vt1 0.2425266 0.00390625
vt1 0.2425265 0.3535681
vt1 0.5954788 0.04977366
vt1 0.6374381 0.04977192
vt1 0.6374381 0.08472598
vt1 0.5954787 0.08472583
vt1 0.557455 0.9429651
vt1 0.2081611 0.9429652
vt1 0.2081611 0.9010058
vt1 0.557455 0.9010058
vt1 0.01079236 0.7906387
vt1 0.3532377 0.8594666
vt1 0.3463556 0.8937335
vt1 0.00390625 0.8249078
vt1 0.5618326 0.7145392
vt1 0.2193834 0.7833662
vt1 0.2125012 0.7490993
vt1 0.5549468 0.6802721
vt1 0.2081611 0.9429652
vt1 0.1471709 0.9429651
vt1 0.1471709 0.9010059
vt1 0.2081611 0.9010058
vt1 0.09259195 0.9010057
vt1 0.09259194 0.9429651
vt1 0.03851724 0.9010057
vt1 0.03851725 0.9429651
vt1 0.00390625 0.9010057
vt1 0.00390625 0.9429651
vt1 0.2125012 0.7490993
vt1 0.2193834 0.7833662
vt1 0.1474084 0.7867325
vt1 0.1518031 0.755061
vt1 0.09277342 0.7681851
vt1 0.1001899 0.7373144
vt1 0.03706096 0.734557
vt1 0.05408122 0.7090644
vt1 0.00390625 0.6864949
vt1 0.03487381 0.6802721
vt1 0.3532377 0.8594666
vt1 0.4139358 0.8654281
vt1 0.4183307 0.8970995
vt1 0.3463556 0.8937335
vt1 0.4729656 0.878552
vt1 0.4655489 0.8476812
vt1 0.5286779 0.8449237
vt1 0.5116575 0.8194311
vt1 0.5618324 0.7968615
vt1 0.5308648 0.7906387
vt1 0.1987319 0.9468716
vt1 0.5480294 0.9468718
vt1 0.5480294 0.9888312
vt1 0.1987319 0.988831
vt1 0.1266783 0.9468715
vt1 0.1987319 0.9468716
vt1 0.1987319 0.988831
vt1 0.1266783 0.9888308
vt1 0.06898096 0.9468715
vt1 0.06898095 0.9888309
vt1 0.00390625 0.9468715
vt1 0.00390625 0.9888308
vt1 0.5954787 0.00390625
vt1 0.6538671 0.003906269
vt1 0.6538671 0.04586567
vt1 0.5954787 0.04586565
vt1 0.495547 0.4945336
vt1 0.003906261 0.4945336
vt1 0.00390625 0.00390625
vt1 0.495547 0.00390625
vt1 0.9910939 0.4945336
vt1 0.4994532 0.4945336
vt1 0.4994532 0.00390625
vt1 0.9910939 0.00390625
vt1 0.495547 0.4945336
vt1 0.003906261 0.4945336
vt1 0.00390625 0.00390625
vt1 0.495547 0.00390625
vt1 0.9910939 0.4945336
vt1 0.4994532 0.4945336
vt1 0.4994532 0.00390625
vt1 0.9910939 0.00390625
vt1 0.495547 0.4945336
vt1 0.003906261 0.4945336
vt1 0.00390625 0.00390625
vt1 0.495547 0.00390625
vt1 0.9910939 0.4945336
vt1 0.4994532 0.4945336
vt1 0.4994532 0.00390625
vt1 0.9910939 0.00390625
vt1 0.495547 0.4945336
vt1 0.003906261 0.4945336
vt1 0.00390625 0.00390625
vt1 0.495547 0.00390625
vt1 0.9910939 0.4945336
vt1 0.4994532 0.4945336
vt1 0.4994532 0.00390625
vt1 0.9910939 0.00390625

vt2 0.406273 0.3574744
vt2 0.406273 0.6763658
vt2 0.3528474 0.6763659
vt2 0.3528474 0.3574744
vt2 0.4669695 0.3574744
vt2 0.4669695 0.6763658
vt2 0.5298077 0.3574744
vt2 0.5298077 0.6763658
vt2 0.5811509 0.3574744
vt2 0.5811509 0.6763658
vt2 0.00390625 0.6763658
vt2 0.003906263 0.3574744
vt2 0.3528474 0.3574744
vt2 0.3528474 0.6763659
vt2 0.2425266 0.00390625
vt2 0.5915724 0.003906316
vt2 0.5915724 0.3535682
vt2 0.2425265 0.3535681
vt2 0.1892025 0.00390625
vt2 0.1892024 0.3535681
vt2 0.1250155 0.3535681
vt2 0.1250155 0.00390625
vt2 0.06002272 0.3535681
vt2 0.06002278 0.00390625
vt2 0.00390625 0.3535681
vt2 0.003906309 0.00390625
vt2 0.2425266 0.00390625
vt2 0.2425265 0.3535681
vt2 0.5954788 0.04977366
vt2 0.6374381 0.04977192
vt2 0.6374381 0.08472598
vt2 0.5954787 0.08472583
vt2 0.557455 0.9429651
vt2 0.2081611 0.9429652
vt2 0.2081611 0.9010058
vt2 0.557455 0.9010058
vt2 0.01079236 0.7906387
vt2 0.3532377 0.8594666
vt2 0.3463556 0.8937335
vt2 0.00390625 0.8249078
vt2 0.5618326 0.7145392
vt2 0.2193834 0.7833662
vt2 0.2125012 0.7490993
vt2 0.5549468 0.6802721
vt2 0.2081611 0.9429652
vt2 0.1471709 0.9429651
vt2 0.1471709 0.9010059
vt2 0.2081611 0.9010058
vt2 0.09259195 0.9010057
vt2 0.09259194 0.9429651
vt2 0.03851724 0.9010057
vt2 0.03851725 0.9429651
vt2 0.00390625 0.9010057
vt2 0.00390625 0.9429651
vt2 0.2125012 0.7490993
vt2 0.2193834 0.7833662
vt2 0.1474084 0.7867325
vt2 0.1518031 0.755061
vt2 0.09277342 0.7681851
vt2 0.1001899 0.7373144
vt2 0.03706096 0.734557
vt2 0.05408122 0.7090644
vt2 0.00390625 0.6864949
vt2 0.03487381 0.6802721
vt2 0.3532377 0.8594666
vt2 0.4139358 0.8654281
vt2 0.4183307 0.8970995
vt2 0.3463556 0.8937335
vt2 0.4729656 0.878552
vt2 0.4655489 0.8476812
vt2 0.5286779 0.8449237
vt2 0.5116575 0.8194311
vt2 0.5618324 0.7968615
vt2 0.5308648 0.7906387
vt2 0.1987319 0.9468716
vt2 0.5480294 0.9468718
vt2 0.5480294 0.9888312
vt2 0.1987319 0.988831
vt2 0.1266783 0.9468715
vt2 0.1987319 0.9468716
vt2 0.1987319 0.988831
vt2 0.1266783 0.9888308
vt2 0.06898096 0.9468715
vt2 0.06898095 0.9888309
vt2 0.00390625 0.9468715
vt2 0.00390625 0.9888308
vt2 0.5954787 0.00390625
vt2 0.6538671 0.003906269
vt2 0.6538671 0.04586567
vt2 0.5954787 0.04586565
vt2 0.495547 0.4945336
vt2 0.003906261 0.4945336
vt2 0.00390625 0.00390625
vt2 0.495547 0.00390625
vt2 0.9910939 0.4945336
vt2 0.4994532 0.4945336
vt2 0.4994532 0.00390625
vt2 0.9910939 0.00390625
vt2 0.495547 0.4945336
vt2 0.003906261 0.4945336
vt2 0.00390625 0.00390625
vt2 0.495547 0.00390625
vt2 0.9910939 0.4945336
vt2 0.4994532 0.4945336
vt2 0.4994532 0.00390625
vt2 0.9910939 0.00390625
vt2 0.495547 0.4945336
vt2 0.003906261 0.4945336
vt2 0.00390625 0.00390625
vt2 0.495547 0.00390625
vt2 0.9910939 0.4945336
vt2 0.4994532 0.4945336
vt2 0.4994532 0.00390625
vt2 0.9910939 0.00390625
vt2 0.495547 0.4945336
vt2 0.003906261 0.4945336
vt2 0.00390625 0.00390625
vt2 0.495547 0.00390625
vt2 0.9910939 0.4945336
vt2 0.4994532 0.4945336
vt2 0.4994532 0.00390625
vt2 0.9910939 0.00390625

vc 1 1 1 1
vc 1 1 1 1
vc 1 1 1 1
vc 1 1 1 1
vc 1 1 1 1
vc 1 1 1 1
vc 1 1 1 1
vc 1 1 1 1
vc 1 1 1 1
vc 1 1 1 1
vc 1 1 1 1
vc 1 1 1 1
vc 1 1 1 1
vc 1 1 1 1
vc 1 1 1 1
vc 1 1 1 1
vc 1 1 1 1
vc 1 1 1 1
vc 1 1 1 1
vc 1 1 1 1
vc 1 1 1 1
vc 1 1 1 1
vc 1 1 1 1
vc 1 1 1 1
vc 1 1 1 1
vc 1 1 1 1
vc 1 1 1 1
vc 1 1 1 1
vc 1 1 1 1
vc 1 1 1 1
vc 1 1 1 1
vc 1 1 1 1
vc 1 1 1 1
vc 1 1 1 1
vc 1 1 1 1
vc 1 1 1 1
vc 1 1 1 1
vc 1 1 1 1
vc 1 1 1 1
vc 1 1 1 1
vc 1 1 1 1
vc 1 1 1 1
vc 1 1 1 1
vc 1 1 1 1
vc 1 1 1 1
vc 1 1 1 1
vc 1 1 1 1
vc 1 1 1 1
vc 1 1 1 1
vc 1 1 1 1
vc 1 1 1 1
vc 1 1 1 1
vc 1 1 1 1
vc 1 1 1 1
vc 1 1 1 1
vc 1 1 1 1
vc 1 1 1 1
vc 1 1 1 1
vc 1 1 1 1
vc 1 1 1 1
vc 1 1 1 1
vc 1 1 1 1
vc 1 1 1 1
vc 1 1 1 1
vc 1 1 1 1
vc 1 1 1 1
vc 1 1 1 1
vc 1 1 1 1
vc 1 1 1 1
vc 1 1 1 1
vc 1 1 1 1
vc 1 1 1 1
vc 1 1 1 1
vc 1 1 1 1
vc 1 1 1 1
vc 1 1 1 1
vc 1 1 1 1
vc 1 1 1 1
vc 1 1 1 1
vc 1 1 1 1
vc 1 1 1 1
vc 1 1 1 1
vc 1 1 1 1
vc 1 1 1 1
vc 1 1 1 1
vc 1 1 1 1
vc 1 1 1 1
vc 1 1 1 1
vc 1 1 1 1
vc 1 1 1 1
vc 1 1 1 1
vc 1 1 1 1
vc 1 1 1 1
vc 1 1 1 1
vc 1 1 1 1
vc 1 1 1 1
vc 1 1 1 1
vc 1 1 1 1
vc 1 1 1 1
vc 1 1 1 1
vc 1 1 1 1
vc 1 1 1 1
vc 1 1 1 1
vc 1 1 1 1
vc 1 1 1 1
vc 1 1 1 1
vc 1 1 1 1
vc 1 1 1 1
vc 1 1 1 1
vc 1 1 1 1
vc 1 1 1 1
vc 1 1 1 1
vc 1 1 1 1
vc 1 1 1 1
vc 1 1 1 1
vc 1 1 1 1
vc 1 1 1 1
vc 1 1 1 1
vc 1 1 1 1
vc 1 1 1 1
vc 1 1 1 1
vc 1 1 1 1
f 1/1/1 3/3/3 2/2/2
f 1/1/1 4/4/4 3/3/3
f 2/2/2 5/5/5 1/1/1
f 2/2/2 6/6/6 5/5/5
f 6/6/6 7/7/7 5/5/5
f 6/6/6 8/8/8 7/7/7
f 8/8/8 9/9/9 7/7/7
f 8/8/8 10/10/10 9/9/9
f 11/11/11 13/13/13 12/12/12
f 11/11/11 14/14/14 13/13/13
f 15/15/15 17/17/17 16/16/16
f 15/15/15 18/18/18 17/17/17
f 19/19/19 21/21/21 20/20/20
f 19/19/19 22/22/22 21/21/21
f 22/22/22 23/23/23 21/21/21
f 22/22/22 24/24/24 23/23/23
f 24/24/24 25/25/25 23/23/23
f 24/24/24 26/26/26 25/25/25
f 20/20/20 27/27/27 19/19/19
f 20/20/20 28/28/28 27/27/27
f 29/29/29 31/31/31 30/30/30
f 29/29/29 32/32/32 31/31/31
f 33/33/33 35/35/35 34/34/34
f 33/33/33 36/36/36 35/35/35
f 37/37/37 39/39/39 38/38/38
f 37/37/37 40/40/40 39/39/39
f 41/41/41 43/43/43 42/42/42
f 41/41/41 44/44/44 43/43/43
f 45/45/45 47/47/47 46/46/46
f 45/45/45 48/48/48 47/47/47
f 46/46/46 47/47/47 49/49/49
f 46/46/46 49/49/49 50/50/50
f 50/50/50 49/49/49 51/51/51
f 50/50/50 51/51/51 52/52/52
f 52/52/52 51/51/51 53/53/53
f 52/52/52 53/53/53 54/54/54
f 55/55/55 57/57/57 56/56/56
f 55/55/55 58/58/58 57/57/57
f 58/58/58 59/59/59 57/57/57
f 58/58/58 60/60/60 59/59/59
f 60/60/60 61/61/61 59/59/59
f 60/60/60 62/62/62 61/61/61
f 62/62/62 63/63/63 61/61/61
f 62/62/62 64/64/64 63/63/63
f 65/65/65 67/67/67 66/66/66
f 65/65/65 68/68/68 67/67/67
f 66/66/66 67/67/67 69/69/69
f 66/66/66 69/69/69 70/70/70
f 70/70/70 69/69/69 71/71/71
f 70/70/70 71/71/71 72/72/72
f 72/72/72 71/71/71 73/73/73
f 72/72/72 73/73/73 74/74/74
f 75/75/75 77/77/77 76/76/76
f 75/75/75 78/78/78 77/77/77
f 79/79/79 81/81/81 80/80/80
f 79/79/79 82/82/82 81/81/81
f 83/83/83 82/82/82 79/79/79
f 83/83/83 84/84/84 82/82/82
f 85/85/85 84/84/84 83/83/83
f 85/85/85 86/86/86 84/84/84
f 87/87/87 89/89/89 88/88/88
f 87/87/87 90/90/90 89/89/89
f 91/91/91 93/93/93 92/92/92
f 91/91/91 94/94/94 93/93/93
f 95/95/95 97/97/97 96/96/96
f 95/95/95 98/98/98 97/97/97
f 99/99/99 101/101/101 100/100/100
f 99/99/99 102/102/102 101/101/101
f 103/103/103 105/105/105 104/104/104
f 103/103/103 106/106/106 105/105/105
f 107/107/107 109/109/109 108/108/108
f 107/107/107 110/110/110 109/109/109
f 111/111/111 113/113/113 112/112/112
f 111/111/111 114/114/114 113/113/113
f 115/115/115 117/117/117 116/116/116
f 115/115/115 118/118/118 117/117/117
f 119/119/119 121/121/121 120/120/120
f 119/119/119 122/122/122 121/121/121

