g Exported Mesh Combined Mesh 
v -4 3.999991 -3.917003
v -4 4.75 -3.917004
v -2 4.75 -3.916998
v -2 4.000009 -3.916998
v -2 3.999991 -3.917003
v -2 4.75 -3.917003
v 7.152565E-07 4.75 -3.916998
v 5.960462E-07 4.000009 -3.916997
v 5.960449E-07 3.999991 -3.920003
v 6.556506E-07 4.75 -3.920003
v 2.000001 4.75 -3.919997
v 2.000001 4.000009 -3.919997

vn -2.825262E-06 4.45048E-07 1
vn -2.825262E-06 4.45048E-07 1
vn -2.825262E-06 4.45048E-07 1
vn -2.825262E-06 4.45048E-07 1
vn -2.825262E-06 4.45048E-07 1
vn -2.825262E-06 4.45048E-07 1
vn -2.825262E-06 4.45048E-07 1
vn -2.825262E-06 4.45048E-07 1
vn -2.825262E-06 4.45048E-07 1
vn -2.825262E-06 4.45048E-07 1
vn -2.825262E-06 4.45048E-07 1
vn -2.825262E-06 4.45048E-07 1

vt 0.6787444 0.5542034
vt 0.6787444 0.3045928
vt 0.01312396 0.3045928
vt 0.01312396 0.5541975
vt 0.6787444 0.5542034
vt 0.6787444 0.3045928
vt 0.01312396 0.3045928
vt 0.01312396 0.5541975
vt 0.6787444 0.5542034
vt 0.6787444 0.3045928
vt 0.01312396 0.3045928
vt 0.01312396 0.5541975

vt1 0.9961543 0.00390625
vt1 0.9961534 0.3760037
vt1 0.00390625 0.3760034
vt1 0.003906308 0.003914841
vt1 0.9961543 0.00390625
vt1 0.9961534 0.3760037
vt1 0.00390625 0.3760034
vt1 0.003906308 0.003914841
vt1 0.9961543 0.00390625
vt1 0.9961534 0.3760037
vt1 0.00390625 0.3760034
vt1 0.003906308 0.003914841

vt2 0.9961543 0.00390625
vt2 0.9961534 0.3760037
vt2 0.00390625 0.3760034
vt2 0.003906308 0.003914841
vt2 0.9961543 0.00390625
vt2 0.9961534 0.3760037
vt2 0.00390625 0.3760034
vt2 0.003906308 0.003914841
vt2 0.9961543 0.00390625
vt2 0.9961534 0.3760037
vt2 0.00390625 0.3760034
vt2 0.003906308 0.003914841

vc 1 1 1 1
vc 1 1 1 1
vc 1 1 1 1
vc 1 1 1 1
vc 1 1 1 1
vc 1 1 1 1
vc 1 1 1 1
vc 1 1 1 1
vc 1 1 1 1
vc 1 1 1 1
vc 1 1 1 1
vc 1 1 1 1
f 1/1/1 3/3/3 2/2/2
f 1/1/1 4/4/4 3/3/3
f 5/5/5 7/7/7 6/6/6
f 5/5/5 8/8/8 7/7/7
f 9/9/9 11/11/11 10/10/10
f 9/9/9 12/12/12 11/11/11

